<?xml version="1.0" encoding="UTF-8"?>
<svg xmlns="http://www.w3.org/2000/svg" xmlns:xlink="http://www.w3.org/1999/xlink" width="512" height="512" viewBox="0 0 60 58" version="1.1"><!-- Generator: Sketch 51.3 (57544) - http://www.bohemiancoding.com/sketch --><title>015 - Third Eye</title><desc>Created with Sketch.</desc><defs/><g id="Page-1" stroke="none" stroke-width="1" fill="none" fill-rule="evenodd"><g id="015---Third-Eye" fill-rule="nonzero"><path d="M38.56,58 L21.44,58 C14.89,54.72 16.9,44.32 16.9,44.32 L16.87,44.27 C17.958754,43.6653661 18.9810234,42.9481017 19.92,42.13 L19.92,38.3 C23.95,42.13 23.95,45.96 27.98,45.96 L32.02,45.96 C36.05,45.96 36.05,42.13 40.08,38.3 L40.08,42.13 C41.0189766,42.9481017 42.041246,43.6653661 43.13,44.27 L43.1,44.32 C43.1,44.32 45.11,54.72 38.56,58 Z" id="Shape" fill="#F09372"/><path d="M15.83,19.15 C15.83,19.15 14.75,17.51 13.67,18.06 C12.6,18.6 13.13,23.53 13.13,23.53 C13.5073319,25.8030943 14.8686183,27.7937927 16.85,28.97 L20,27 L16,19 L15.83,19.15 Z" id="Shape" fill="#F09372"/><path d="M1,54.02 C0.890905774,53.3135753 0.977366526,52.5907635 1.25,51.93 C1.85,50.9 3.53,50.33 4.54,49.79 C5.97,49.03 7.4,48.26 8.81,47.47 C10.3685775,46.4983074 12.0840655,45.8046683 13.88,45.42 C14.9321364,45.2003323 15.9418327,44.8119875 16.87,44.27 L16.9,44.32 C16.9,44.32 14.89,54.72 21.44,58 L1,58 L1,54.02 Z" id="Shape" fill="#2FA8CC"/><path d="M59,54.02 L59,58 L38.56,58 C45.11,54.72 43.1,44.32 43.1,44.32 L43.13,44.27 C44.0581673,44.8119875 45.0678636,45.2003323 46.12,45.42 C47.9159345,45.8046683 49.6314225,46.4983074 51.19,47.47 C52.6,48.26 54.03,49.03 55.46,49.79 C56.47,50.33 58.15,50.9 58.75,51.93 C59.0226335,52.5907635 59.1090942,53.3135753 59,54.02 Z" id="Shape" fill="#2FA8CC"/><path d="M44.17,19.15 C44.17,19.15 45.25,17.51 46.33,18.06 C47.4,18.6 46.87,23.53 46.87,23.53 C46.4926681,25.8030943 45.1313817,27.7937927 43.15,28.97 L39,29 L44.17,19.15 Z" id="Shape" fill="#F09372"/><path d="M40.08,46.96 C39.5277153,46.96 39.08,46.5122847 39.08,45.96 L39.08,38 L20.92,38 L20.92,45.96 C20.92,46.5122847 20.4722847,46.96 19.92,46.96 C19.3677153,46.96 18.92,46.5122847 18.92,45.96 L18.92,37 C18.92,36.4477153 19.3677153,36 19.92,36 L40.08,36 C40.6322847,36 41.08,36.4477153 41.08,37 L41.08,45.96 C41.08,46.5122847 40.6322847,46.96 40.08,46.96 Z" id="Shape" fill="#F0785A"/><path d="M43.1,27.36 C43.1,31.19 44.11,34.47 40.08,38.3 C36.05,42.13 36.05,45.96 32.02,45.96 L27.98,45.96 C23.95,45.96 23.95,42.13 19.92,38.3 C15.89,34.47 16.9,31.19 16.9,27.36 C16.9,23.53 15.39,22.43 15.89,11.49 C16.4,0.55 28.99,0 28.99,0 L31.01,0 C31.01,0 43.6,0.55 44.11,11.49 C44.61,22.43 43.1,23.53 43.1,27.36 Z" id="Shape" fill="#FDD7AD"/><path d="M40,15 C40,15 35.5228,21 30,21 C24.4772,21 20,15 20,15 C20,15 24.4772,9 30,9 C35.5228,9 40,15 40,15 Z" id="Shape" fill="#F09372"/><path d="M39,15 C39,15 34.9706,21 30,21 C25.0294,21 21,15 21,15 C21,15 25.0294,9 30,9 C34.9706,9 39,15 39,15 Z" id="Shape" fill="#ECF0F1"/><circle id="Oval" fill="#2FA8CC" cx="30" cy="15" r="6"/><circle id="Oval" fill="#67B9CC" cx="30" cy="15" r="4"/><circle id="Oval" fill="#2C3E50" cx="30" cy="15" r="2"/><path d="M30,28 C29.4477153,28 29,27.5522847 29,27 L29,25 C29,24.4477153 29.4477153,24 30,24 C30.5522847,24 31,24.4477153 31,25 L31,27 C31,27.5522847 30.5522847,28 30,28 Z" id="Shape" fill="#2FA8CC"/><path d="M38.4854,24.4854 C38.2201026,24.4857117 37.9656235,24.3802636 37.7783,24.1924 L36.3643,22.7783 C35.9853278,22.3859211 35.9907476,21.7622152 36.3764814,21.3764814 C36.7622152,20.9907476 37.3859211,20.9853278 37.7783,21.3643 L39.1924,22.7783 C39.4783794,23.0642849 39.5639389,23.4943737 39.4091859,23.8680354 C39.2544329,24.2416971 38.8898398,24.4853541 38.4854,24.4854 Z" id="Shape" fill="#2FA8CC"/><path d="M37.0713,8.9287 C36.6669041,8.92861365 36.3023659,8.6849725 36.147622,8.31135456 C35.9928781,7.93773662 36.0783921,7.50769425 36.3643,7.2217 L37.7783,5.8076 C38.1702029,5.42550642 38.7964666,5.42947478 39.1834959,5.81650411 C39.5705252,6.20353343 39.5744936,6.82979708 39.1924,7.2217 L37.7783,8.6357 C37.5910324,8.82358586 37.3365737,8.92904043 37.0713,8.9287 Z" id="Shape" fill="#2FA8CC"/><path d="M30,6 C29.4477153,6 29,5.55228475 29,5 L29,3 C29,2.44771525 29.4477153,2 30,2 C30.5522847,2 31,2.44771525 31,3 L31,5 C31,5.55228475 30.5522847,6 30,6 Z" id="Shape" fill="#2FA8CC"/><path d="M22.9287,8.9287 C22.6634263,8.92904043 22.4089676,8.82358586 22.2217,8.6357 L20.8076,7.2217 C20.4255064,6.82979708 20.4294748,6.20353343 20.8165041,5.81650411 C21.2035334,5.42947478 21.8297971,5.42550642 22.2217,5.8076 L23.6357,7.2217 C23.9216079,7.50769425 24.0071219,7.93773662 23.852378,8.31135456 C23.6976341,8.6849725 23.3330959,8.92861365 22.9287,8.9287 Z" id="Shape" fill="#2FA8CC"/><path d="M21.5146,24.4854 C21.1101602,24.4853541 20.7455671,24.2416971 20.5908141,23.8680354 C20.4360611,23.4943737 20.5216206,23.0642849 20.8076,22.7783 L22.2217,21.3643 C22.6140789,20.9853278 23.2377848,20.9907476 23.6235186,21.3764814 C24.0092524,21.7622152 24.0146722,22.3859211 23.6357,22.7783 L22.2217,24.1924 C22.0343765,24.3802636 21.7798974,24.4857117 21.5146,24.4854 Z" id="Shape" fill="#2FA8CC"/><circle id="Oval" fill="#ECF0F1" cx="26" cy="14" r="3"/></g></g></svg>
